<?xml version="1.0" encoding="utf-8"?>
<!-- Generator: Adobe Illustrator 28.2.0, SVG Export Plug-In . SVG Version: 6.00 Build 0)  -->
<svg version="1.1" id="Layer_1" xmlns="http://www.w3.org/2000/svg" xmlns:xlink="http://www.w3.org/1999/xlink" x="0px" y="0px"
	 viewBox="0 0 42 42" style="enable-background:new 0 0 42 42;" xml:space="preserve">
<style type="text/css">
	.st0{fill:url(#SVGID_1_);}
	.st1{fill:url(#SVGID_00000134215795125218945880000014904131931581927314_);}
	.st2{fill:url(#SVGID_00000086684529386341090530000016333348041158863788_);}
	.st3{fill:url(#SVGID_00000181770678879687402920000003488544973283299723_);}
	.st4{fill:url(#SVGID_00000047054961237865757560000007332079437985390259_);}
	.st5{fill:url(#SVGID_00000143597612202133914550000009996248223322327198_);}
	.st6{fill:url(#SVGID_00000037670209159365357530000007538880525328744594_);}
	.st7{fill:url(#SVGID_00000143598300412659147690000002546204376293523632_);}
	.st8{fill:url(#SVGID_00000011030849057719117070000010178406618860025985_);}
	.st9{fill:url(#SVGID_00000031921005372240976200000014299773374131442094_);}
	.st10{fill:url(#SVGID_00000118355556836478608520000006189445842441211821_);}
	.st11{fill:url(#SVGID_00000173143731482726635920000017391606699459397285_);}
	.st12{fill:url(#SVGID_00000134946062978892819840000014593683285572002944_);}
</style>
<g>
	
		<linearGradient id="SVGID_1_" gradientUnits="userSpaceOnUse" x1="18.3378" y1="7.57" x2="31.3378" y2="7.57" gradientTransform="matrix(0.3768 0.3768 -0.4953 0.4953 22.1658 -6.0544)">
		<stop  offset="0.2593" style="stop-color:#FFDB6E"/>
		<stop  offset="1" style="stop-color:#FFBC5E"/>
	</linearGradient>
	<path class="st0" d="M30.2,9.5c-0.6,0.6-2.2,0-3.6-1.3c-1.4-1.4-2-2.9-1.3-3.6c0.6-0.6,2.2,0,3.6,1.3C30.2,7.3,30.8,8.9,30.2,9.5z"
		/>
	
		<linearGradient id="SVGID_00000017488414529890822400000004188703806457105537_" gradientUnits="userSpaceOnUse" x1="5.3812" y1="9.087" x2="22.7251" y2="25.0428" gradientTransform="matrix(0.5264 0.5264 -0.6536 0.6536 23.5189 -3.489)">
		<stop  offset="0.2593" style="stop-color:#FFDB6E"/>
		<stop  offset="1" style="stop-color:#FFBC5E"/>
	</linearGradient>
	<polygon style="fill:url(#SVGID_00000017488414529890822400000004188703806457105537_);" points="14.1,25.6 9.2,20.7 25.4,4.5 
		30.3,9.4 	"/>
</g>
<linearGradient id="SVGID_00000060753105043385101860000016995884039084472753_" gradientUnits="userSpaceOnUse" x1="22.1912" y1="19.9216" x2="25.9265" y2="19.9216">
	<stop  offset="0.2593" style="stop-color:#FFDB6E"/>
	<stop  offset="1" style="stop-color:#FFBC5E"/>
</linearGradient>
<circle style="fill:url(#SVGID_00000060753105043385101860000016995884039084472753_);" cx="24.1" cy="19.9" r="1.9"/>
<linearGradient id="SVGID_00000039812436974937292100000000531855580629203866_" gradientUnits="userSpaceOnUse" x1="21.532" y1="17.9936" x2="23.4683" y2="17.9936" gradientTransform="matrix(0.7071 -0.7071 0.7071 0.7071 -6.197 21.4725)">
	<stop  offset="0.2593" style="stop-color:#FFDB6E"/>
	<stop  offset="1" style="stop-color:#FFBC5E"/>
</linearGradient>
<polygon style="fill:url(#SVGID_00000039812436974937292100000000531855580629203866_);" points="22.3,19.5 23.7,18.1 22.6,17.1 
	21.2,18.4 "/>
<linearGradient id="SVGID_00000173860685163905876600000011522238359461779856_" gradientUnits="userSpaceOnUse" x1="23.2944" y1="19.911" x2="24.8716" y2="19.911">
	<stop  offset="0.2593" style="stop-color:#FFDB6E"/>
	<stop  offset="1" style="stop-color:#FFBC5E"/>
</linearGradient>
<circle style="fill:url(#SVGID_00000173860685163905876600000011522238359461779856_);" cx="24.1" cy="19.9" r="0.8"/>
<linearGradient id="SVGID_00000013151645210404148640000002228304972487643291_" gradientUnits="userSpaceOnUse" x1="29.4474" y1="30.9418" x2="30.6085" y2="30.9418" gradientTransform="matrix(0.866 -0.5 0.5 0.866 -12.2115 16.9267)">
	<stop  offset="0.2593" style="stop-color:#FFDB6E"/>
	<stop  offset="1" style="stop-color:#FFBC5E"/>
</linearGradient>
<path style="fill:url(#SVGID_00000013151645210404148640000002228304972487643291_);" d="M33.8,36c-0.3,0.2-0.7,0.4-0.9,0.1
	c-1.1-2-7.4-12.4-8.3-14.5c0.2-0.4,0.9-0.8,1.1-0.1c0.3,0.6,0.9,1.6,1.6,2.8c1.9,3.3,4.8,8.3,6.6,11.4C34,35.8,34,35.9,33.8,36
	L33.8,36z"/>
<linearGradient id="SVGID_00000110444091342642580950000001090031426088036257_" gradientUnits="userSpaceOnUse" x1="19.5393" y1="33.4801" x2="20.7004" y2="33.4801" gradientTransform="matrix(0.8084 0.5886 -0.6264 0.8604 22.4682 -12.0205)">
	<stop  offset="0.2593" style="stop-color:#FFDB6E"/>
	<stop  offset="1" style="stop-color:#FFBC5E"/>
</linearGradient>
<path style="fill:url(#SVGID_00000110444091342642580950000001090031426088036257_);" d="M12.6,36.2c-0.3-0.2-0.7-0.5-0.4-0.8
	c1.5-1.9,8.9-12.6,10.5-14.4c0.4,0,1.1,0.5,0.5,1c-0.4,0.6-1.1,1.6-2,2.8c-2.4,3.3-6,8.3-8.2,11.3C12.9,36.3,12.8,36.3,12.6,36.2
	L12.6,36.2z"/>
<linearGradient id="SVGID_00000160161986570831886900000015227647202356636833_" gradientUnits="userSpaceOnUse" x1="9.693" y1="24.8169" x2="10.9393" y2="23.5705">
	<stop  offset="0.2593" style="stop-color:#FFDB6E"/>
	<stop  offset="1" style="stop-color:#FFBC5E"/>
</linearGradient>
<rect x="9.7" y="23.6" style="fill:url(#SVGID_00000160161986570831886900000015227647202356636833_);" width="1.2" height="1.2"/>
<linearGradient id="SVGID_00000047766564883429496280000015222094046087200699_" gradientUnits="userSpaceOnUse" x1="9.2869" y1="23.4534" x2="11.9046" y2="23.4534" gradientTransform="matrix(0.4771 -0.4771 0.7071 0.7071 -10.7074 12.0436)">
	<stop  offset="0.2593" style="stop-color:#FFDB6E"/>
	<stop  offset="1" style="stop-color:#FFBC5E"/>
</linearGradient>
<polygon style="fill:url(#SVGID_00000047766564883429496280000015222094046087200699_);" points="12.5,23.9 11.2,25.1 9.4,23.3 
	10.6,22 "/>
<linearGradient id="SVGID_00000003805269747989031580000016001450004802869683_" gradientUnits="userSpaceOnUse" x1="7.7249" y1="25.5844" x2="8.9712" y2="24.3381" gradientTransform="matrix(0.7071 0.7071 -0.7071 0.7071 20.205 0.3758)">
	<stop  offset="0.2593" style="stop-color:#FFDB6E"/>
	<stop  offset="1" style="stop-color:#FFBC5E"/>
</linearGradient>
<polygon style="fill:url(#SVGID_00000003805269747989031580000016001450004802869683_);" points="8.5,23 9.3,23.9 8.5,24.8 
	7.6,23.9 "/>
<linearGradient id="SVGID_00000077303403636972977940000015085123177830123949_" gradientUnits="userSpaceOnUse" x1="8.4467" y1="24.8169" x2="9.693" y2="23.5705">
	<stop  offset="0.2593" style="stop-color:#FFDB6E"/>
	<stop  offset="1" style="stop-color:#FFBC5E"/>
</linearGradient>
<rect x="8.4" y="23.6" style="fill:url(#SVGID_00000077303403636972977940000015085123177830123949_);" width="1.2" height="1.2"/>
<linearGradient id="SVGID_00000178903394635947031950000003321685003471171223_" gradientUnits="userSpaceOnUse" x1="23.8216" y1="7.4127" x2="24.6746" y2="7.4127" gradientTransform="matrix(0.7071 -0.7071 0.7071 0.7071 0.8534 18.1651)">
	<stop  offset="0.2593" style="stop-color:#FFDB6E"/>
	<stop  offset="1" style="stop-color:#FFBC5E"/>
</linearGradient>
<path style="fill:url(#SVGID_00000178903394635947031950000003321685003471171223_);" d="M23.2,5.8l-0.4,0.4c-0.1,0.1-0.1,0.2,0,0.2
	l0.2,0.2c0.1,0.1,0.2,0.1,0.2,0l0.4-0.4c0.1-0.1,0.1-0.2,0-0.2l-0.2-0.2C23.4,5.8,23.3,5.8,23.2,5.8z"/>
<linearGradient id="SVGID_00000024711563566892745090000015963405170072560281_" gradientUnits="userSpaceOnUse" x1="21.8244" y1="7.3467" x2="23.3053" y2="5.8657" gradientTransform="matrix(0.7071 0.7071 -0.7071 0.7071 11.5463 -14.9437)">
	<stop  offset="0.2593" style="stop-color:#FFDB6E"/>
	<stop  offset="1" style="stop-color:#FFBC5E"/>
</linearGradient>
<path style="fill:url(#SVGID_00000024711563566892745090000015963405170072560281_);" d="M21.9,6.6L21.9,6.6c0.2,0.2,0.4,0.2,0.6,0
	l1.2-1.2c0.2-0.2,0.2-0.4,0-0.6v0c-0.2-0.2-0.4-0.2-0.6,0L21.9,6C21.7,6.2,21.7,6.4,21.9,6.6z"/>
</svg>
