<?xml version="1.0" encoding="utf-8"?>
<!-- Generator: Adobe Illustrator 28.2.0, SVG Export Plug-In . SVG Version: 6.00 Build 0)  -->
<svg version="1.1" id="Layer_1" xmlns="http://www.w3.org/2000/svg" xmlns:xlink="http://www.w3.org/1999/xlink" x="0px" y="0px"
	 viewBox="0 0 42 42" style="enable-background:new 0 0 42 42;" xml:space="preserve">
<style type="text/css">
	.st0{fill:#FFD169;stroke:url(#SVGID_1_);stroke-width:0.25;}
	.st1{fill:#FFD169;stroke:url(#SVGID_00000022560823345169138840000002769502526271551387_);stroke-width:0.25;}
	.st2{fill:#FFD169;stroke:url(#SVGID_00000179621303359257006320000013343902713143267994_);stroke-width:0.25;}
	.st3{fill:none;stroke:url(#SVGID_00000101784684483865271790000009724398897145587125_);stroke-width:0.25;}
	.st4{fill:none;stroke:url(#SVGID_00000181809964130842649090000009149653096876979110_);stroke-width:0.25;}
	.st5{fill:none;stroke:url(#SVGID_00000118394223059346583340000005238880617778777762_);stroke-width:0.25;}
	.st6{fill:#FFD169;stroke:url(#SVGID_00000063610509483012537550000008304703626649332355_);stroke-width:0.25;}
	.st7{fill:url(#SVGID_00000166660724202621810900000012797830209981654443_);}
	.st8{fill:url(#SVGID_00000106130999664798302800000006318328342664520110_);}
	.st9{fill:url(#SVGID_00000105409961129939033180000011312702086847061429_);}
	.st10{fill:url(#SVGID_00000163756553290871670260000003410232157006239152_);}
	.st11{fill:url(#SVGID_00000163044460504024453080000008621036824511136172_);}
	.st12{fill:url(#SVGID_00000029757522799472134440000018376400896994270095_);}
	.st13{fill:url(#SVGID_00000083769446206547182110000016731994282994210688_);}
	.st14{fill:url(#SVGID_00000075164142710428339070000018000726724010166689_);}
	.st15{fill:url(#SVGID_00000143598202278919140140000006678034089835962523_);}
	.st16{fill:url(#SVGID_00000134207520371996527790000016846271346874785951_);}
	.st17{fill:url(#SVGID_00000039119856520882218050000007427110616242947761_);}
	.st18{fill:url(#SVGID_00000174602086776620878290000014828867544061025940_);}
	.st19{fill:url(#SVGID_00000148625012783971422730000004808271834755436701_);}
</style>
<linearGradient id="SVGID_1_" gradientUnits="userSpaceOnUse" x1="22.3132" y1="11.9816" x2="31.2985" y2="11.9816" gradientTransform="matrix(0.7071 -0.7071 0.7071 0.7071 0.4702 21.6371)">
	<stop  offset="0.2593" style="stop-color:#FFDB6E"/>
	<stop  offset="1" style="stop-color:#FFBC5E"/>
</linearGradient>
<rect x="23.5" y="9.3" transform="matrix(0.7071 -0.7071 0.7071 0.7071 0.2833 22.9933)" class="st0" width="8.7" height="3.7"/>
<linearGradient id="SVGID_00000052094052327052800380000009460226056325979264_" gradientUnits="userSpaceOnUse" x1="29.66" y1="18.9332" x2="36.6159" y2="11.9773" gradientTransform="matrix(0.7071 -0.7071 0.7071 0.7071 -1.5885 28.1362)">
	<stop  offset="0.2593" style="stop-color:#FFDB6E"/>
	<stop  offset="1" style="stop-color:#FFBC5E"/>
</linearGradient>
<rect x="30.3" y="11.4" transform="matrix(0.7071 -0.7071 0.7071 0.7071 -1.4552 27.752)" style="fill:#FFD169;stroke:url(#SVGID_00000052094052327052800380000009460226056325979264_);stroke-width:0.25;" width="5" height="8.4"/>
<linearGradient id="SVGID_00000127021002529602972690000000775142881357340075_" gradientUnits="userSpaceOnUse" x1="29.6288" y1="5.7373" x2="36.5847" y2="-1.2185" gradientTransform="matrix(0.7071 -0.7071 0.7071 0.7071 -1.5885 28.1362)">
	<stop  offset="0.2593" style="stop-color:#FFDB6E"/>
	<stop  offset="1" style="stop-color:#FFBC5E"/>
</linearGradient>
<rect x="20.9" y="2.1" transform="matrix(0.7071 -0.7071 0.7071 0.7071 2.3877 18.412)" style="fill:#FFD169;stroke:url(#SVGID_00000127021002529602972690000000775142881357340075_);stroke-width:0.25;" width="5" height="8.4"/>
<linearGradient id="SVGID_00000047021993501870753990000007733488422849116845_" gradientUnits="userSpaceOnUse" x1="2.1324" y1="5.7282" x2="2.1324" y2="5.7282">
	<stop  offset="0.2593" style="stop-color:#FFDB6E"/>
	<stop  offset="1" style="stop-color:#FFBC5E"/>
</linearGradient>
<path style="fill:none;stroke:url(#SVGID_00000047021993501870753990000007733488422849116845_);stroke-width:0.25;" d="M2.1,5.7"/>
<linearGradient id="SVGID_00000091721061964934028270000011846502246364585648_" gradientUnits="userSpaceOnUse" x1="9.5836" y1="6.2434" x2="9.5836" y2="4.1208">
	<stop  offset="0.2593" style="stop-color:#FFDB6E"/>
	<stop  offset="1" style="stop-color:#FFBC5E"/>
</linearGradient>
<path style="fill:none;stroke:url(#SVGID_00000091721061964934028270000011846502246364585648_);stroke-width:0.25;" d="M1.1,6.1
	C8,3.7,13.5,4,17.5,4.9c0.2,0,0.4,0.1,0.5,0.1"/>
<linearGradient id="SVGID_00000124852090416174286950000010326340865500215452_" gradientUnits="userSpaceOnUse" x1="33.5715" y1="40.9884" x2="33.5715" y2="19.6756">
	<stop  offset="0.2593" style="stop-color:#FFDB6E"/>
	<stop  offset="1" style="stop-color:#FFBC5E"/>
</linearGradient>
<path style="fill:none;stroke:url(#SVGID_00000124852090416174286950000010326340865500215452_);stroke-width:0.25;" d="M35.8,19.7
	c0.8,2.5,2.4,8.9-1.3,15.6c-1.3,2.3-2.9,4.2-4.3,5.5"/>
<linearGradient id="SVGID_00000085224497006656152830000007772596046199918488_" gradientUnits="userSpaceOnUse" x1="5.7976" y1="44.1985" x2="5.7976" y2="25.3238">
	<stop  offset="0.2593" style="stop-color:#FFDB6E"/>
	<stop  offset="1" style="stop-color:#FFBC5E"/>
</linearGradient>
<circle style="fill:#FFD169;stroke:url(#SVGID_00000085224497006656152830000007772596046199918488_);stroke-width:0.25;" cx="5.8" cy="34.8" r="9.3"/>
<g>
	
		<linearGradient id="SVGID_00000122723031342925276140000013070721051286006450_" gradientUnits="userSpaceOnUse" x1="633.1501" y1="275.229" x2="635.9136" y2="275.229" gradientTransform="matrix(0.3768 0.3768 0.4953 -0.4953 -368.7055 -83.1895)">
		<stop  offset="0.2593" style="stop-color:#FFDB6E"/>
		<stop  offset="1" style="stop-color:#FFBC5E"/>
	</linearGradient>
	<path style="fill:url(#SVGID_00000122723031342925276140000013070721051286006450_);" d="M7.2,20.1c-0.1,0.1-0.5,0-0.8-0.3
		c-0.3-0.3-0.4-0.6-0.3-0.8c0.1-0.1,0.5,0,0.8,0.3C7.2,19.6,7.4,20,7.2,20.1z"/>
	
		<linearGradient id="SVGID_00000155145440032340220430000001149239178312895898_" gradientUnits="userSpaceOnUse" x1="370.1953" y1="315.613" x2="373.881" y2="312.2222" gradientTransform="matrix(0.5264 0.5264 0.6536 -0.6536 -396.014 30.6167)">
		<stop  offset="0.2593" style="stop-color:#FFDB6E"/>
		<stop  offset="1" style="stop-color:#FFBC5E"/>
	</linearGradient>
	<polygon style="fill:url(#SVGID_00000155145440032340220430000001149239178312895898_);" points="3.8,23.5 2.8,22.5 6.2,19 
		7.2,20.1 	"/>
</g>
<linearGradient id="SVGID_00000003080924771993857270000006302335468153177020_" gradientUnits="userSpaceOnUse" x1="5.5224" y1="19.5813" x2="6.3162" y2="19.5813" gradientTransform="matrix(1 0 0 -1 0 41.89)">
	<stop  offset="0.2593" style="stop-color:#FFDB6E"/>
	<stop  offset="1" style="stop-color:#FFBC5E"/>
</linearGradient>
<circle style="fill:url(#SVGID_00000003080924771993857270000006302335468153177020_);" cx="5.9" cy="22.3" r="0.4"/>
<linearGradient id="SVGID_00000059284261418241622590000002758829513228321724_" gradientUnits="userSpaceOnUse" x1="-355.9128" y1="-44.788" x2="-355.5013" y2="-44.788" gradientTransform="matrix(0.7071 -0.7071 -0.7071 -0.7071 225.423 -261.2267)">
	<stop  offset="0.2593" style="stop-color:#FFDB6E"/>
	<stop  offset="1" style="stop-color:#FFBC5E"/>
</linearGradient>
<polygon style="fill:url(#SVGID_00000059284261418241622590000002758829513228321724_);" points="5.5,22.2 5.8,21.9 5.6,21.7 
	5.3,22 "/>
<linearGradient id="SVGID_00000152258709990214270060000004138650369768157116_" gradientUnits="userSpaceOnUse" x1="5.7569" y1="19.5813" x2="6.092" y2="19.5813" gradientTransform="matrix(1 0 0 -1 0 41.89)">
	<stop  offset="0.2593" style="stop-color:#FFDB6E"/>
	<stop  offset="1" style="stop-color:#FFBC5E"/>
</linearGradient>
<circle style="fill:url(#SVGID_00000152258709990214270060000004138650369768157116_);" cx="5.9" cy="22.3" r="0.2"/>
<linearGradient id="SVGID_00000034092066771251600940000014116898832471966884_" gradientUnits="userSpaceOnUse" x1="-224.0729" y1="-58.4273" x2="-223.8261" y2="-58.4273" gradientTransform="matrix(0.866 -0.5 -0.5 -0.866 171.7495 -138.3966)">
	<stop  offset="0.2593" style="stop-color:#FFDB6E"/>
	<stop  offset="1" style="stop-color:#FFBC5E"/>
</linearGradient>
<path style="fill:url(#SVGID_00000034092066771251600940000014116898832471966884_);" d="M8,25.7c-0.1,0-0.1,0.1-0.2,0
	c-0.2-0.4-1.6-2.6-1.8-3.1c0-0.1,0.2-0.2,0.2,0c0.1,0.1,0.2,0.3,0.3,0.6C7,23.9,7.6,25,8,25.7C8,25.7,8,25.7,8,25.7L8,25.7z"/>
<linearGradient id="SVGID_00000034089020425752554340000016109877861653946292_" gradientUnits="userSpaceOnUse" x1="189.282" y1="253.3242" x2="189.5287" y2="253.3242" gradientTransform="matrix(0.8084 0.5886 0.6264 -0.8604 -307.2133 130.6352)">
	<stop  offset="0.2593" style="stop-color:#FFDB6E"/>
	<stop  offset="1" style="stop-color:#FFBC5E"/>
</linearGradient>
<path style="fill:url(#SVGID_00000034089020425752554340000016109877861653946292_);" d="M3.5,25.8c-0.1,0-0.1-0.1-0.1-0.2
	c0.3-0.4,1.9-2.7,2.2-3.1c0.1,0,0.2,0.1,0.1,0.2c-0.1,0.1-0.2,0.3-0.4,0.6C4.8,24.1,4,25.1,3.5,25.8C3.5,25.8,3.5,25.8,3.5,25.8
	L3.5,25.8z"/>
<linearGradient id="SVGID_00000013881306266745574820000004720006073320196506_" gradientUnits="userSpaceOnUse" x1="2.8654" y1="18.5375" x2="3.1302" y2="18.8023" gradientTransform="matrix(1 0 0 -1 0 41.89)">
	<stop  offset="0.2593" style="stop-color:#FFDB6E"/>
	<stop  offset="1" style="stop-color:#FFBC5E"/>
</linearGradient>
<rect x="2.9" y="23.1" style="fill:url(#SVGID_00000013881306266745574820000004720006073320196506_);" width="0.3" height="0.3"/>
<linearGradient id="SVGID_00000071559274603053196950000013537108508397411201_" gradientUnits="userSpaceOnUse" x1="-403.3044" y1="-53.713" x2="-402.7476" y2="-53.713" gradientTransform="matrix(0.4771 -0.4771 -0.7071 -0.7071 157.4326 -207.1756)">
	<stop  offset="0.2593" style="stop-color:#FFDB6E"/>
	<stop  offset="1" style="stop-color:#FFBC5E"/>
</linearGradient>
<polygon style="fill:url(#SVGID_00000071559274603053196950000013537108508397411201_);" points="3.5,23.2 3.2,23.4 2.8,23 
	3.1,22.8 "/>
<linearGradient id="SVGID_00000026161732690913974970000004625506569048785796_" gradientUnits="userSpaceOnUse" x1="205.5422" y1="325.5177" x2="205.8071" y2="325.7826" gradientTransform="matrix(0.7071 0.7071 0.7071 -0.7071 -373.0958 107.9958)">
	<stop  offset="0.2593" style="stop-color:#FFDB6E"/>
	<stop  offset="1" style="stop-color:#FFBC5E"/>
</linearGradient>
<polygon style="fill:url(#SVGID_00000026161732690913974970000004625506569048785796_);" points="2.6,23 2.8,23.2 2.6,23.3 
	2.4,23.2 "/>
<linearGradient id="SVGID_00000003826050294986340570000005593532262832085902_" gradientUnits="userSpaceOnUse" x1="2.5948" y1="18.5432" x2="2.8597" y2="18.808" gradientTransform="matrix(1 0 0 -1 0 41.89)">
	<stop  offset="0.2593" style="stop-color:#FFDB6E"/>
	<stop  offset="1" style="stop-color:#FFBC5E"/>
</linearGradient>
<rect x="2.6" y="23.1" style="fill:url(#SVGID_00000003826050294986340570000005593532262832085902_);" width="0.3" height="0.3"/>
<linearGradient id="SVGID_00000047740824948871050250000018361991966392706220_" gradientUnits="userSpaceOnUse" x1="-361.1939" y1="-40.4462" x2="-361.0126" y2="-40.4462" gradientTransform="matrix(0.7071 -0.7071 -0.7071 -0.7071 232.4734 -264.5341)">
	<stop  offset="0.2593" style="stop-color:#FFDB6E"/>
	<stop  offset="1" style="stop-color:#FFBC5E"/>
</linearGradient>
<path style="fill:url(#SVGID_00000047740824948871050250000018361991966392706220_);" d="M5.7,19.3L5.7,19.3
	c-0.1,0.1-0.1,0.1-0.1,0.1l0,0c0,0,0,0,0,0V19.3C5.8,19.4,5.8,19.4,5.7,19.3L5.7,19.3C5.8,19.3,5.8,19.3,5.7,19.3z"/>
<linearGradient id="SVGID_00000065071571494734339720000010330953544202071733_" gradientUnits="userSpaceOnUse" x1="221.8958" y1="325.6792" x2="222.2105" y2="325.994" gradientTransform="matrix(0.7071 0.7071 0.7071 -0.7071 -381.7545 92.6763)">
	<stop  offset="0.2593" style="stop-color:#FFDB6E"/>
	<stop  offset="1" style="stop-color:#FFBC5E"/>
</linearGradient>
<path style="fill:url(#SVGID_00000065071571494734339720000010330953544202071733_);" d="M5.5,19.5L5.5,19.5c0,0,0.1,0,0.1,0
	l0.3-0.3c0,0,0-0.1,0-0.1l0,0c0,0-0.1,0-0.1,0l-0.3,0.3C5.4,19.4,5.4,19.4,5.5,19.5z"/>
</svg>
