<?xml version="1.0" encoding="utf-8"?>
<!-- Generator: Adobe Illustrator 28.2.0, SVG Export Plug-In . SVG Version: 6.00 Build 0)  -->
<svg version="1.1" id="Layer_1" xmlns="http://www.w3.org/2000/svg" xmlns:xlink="http://www.w3.org/1999/xlink" x="0px" y="0px"
	 viewBox="0 0 42 42" style="enable-background:new 0 0 42 42;" xml:space="preserve">
<style type="text/css">
	.st0{fill:url(#SVGID_1_);}
	.st1{fill:url(#SVGID_00000102505784966026221520000009784940504240462502_);}
	.st2{fill:url(#SVGID_00000139277444422220499200000006483510559440209326_);}
	.st3{fill:url(#SVGID_00000112615105977717904920000013491875123321363081_);}
	.st4{fill:none;stroke:url(#SVGID_00000021828363824928423920000004577553525679451010_);stroke-width:0.25;}
	.st5{fill:none;stroke:url(#SVGID_00000137129875016587984310000006497630507828347831_);stroke-width:0.25;}
	.st6{fill:none;stroke:url(#SVGID_00000000210465903163704700000016902007463484123563_);stroke-width:0.25;}
	.st7{fill:none;stroke:url(#SVGID_00000057830207984459868180000014304008036280541084_);stroke-width:0.25;}
	.st8{fill:none;stroke:url(#SVGID_00000096058743817432012100000002272778763998526347_);stroke-width:0.25;}
	.st9{fill:none;stroke:url(#SVGID_00000041992613138893977400000008943502032168775088_);stroke-width:0.25;}
	.st10{fill:none;stroke:url(#SVGID_00000042712567651021583090000005779330313226584729_);stroke-width:0.25;}
	.st11{fill:none;stroke:url(#SVGID_00000072999243216202208570000004257833618347043202_);stroke-width:0.25;}
	.st12{fill:none;stroke:url(#SVGID_00000109003730601127109850000015640030094344629942_);stroke-width:0.5;}
	.st13{fill:none;stroke:url(#SVGID_00000005945262921954545950000007713736300506260905_);stroke-width:0.5;}
	.st14{fill:none;stroke:url(#SVGID_00000107566513356548999390000002462147880190829458_);stroke-width:0.5;}
	.st15{fill:none;stroke:url(#SVGID_00000058580385016639635920000010932572142433696912_);stroke-width:0.5;}
	.st16{fill:none;stroke:url(#SVGID_00000168815203834872269190000002410638278842770862_);stroke-width:0.5;}
</style>
<linearGradient id="SVGID_1_" gradientUnits="userSpaceOnUse" x1="11.2059" y1="14.6253" x2="29.9706" y2="-4.1394">
	<stop  offset="0.2593" style="stop-color:#FFDB6E"/>
	<stop  offset="1" style="stop-color:#FFBC5E"/>
</linearGradient>
<rect x="2.1" y="4.9" class="st0" width="36.9" height="0.6"/>
<linearGradient id="SVGID_00000043427690701030372170000012012213768424891559_" gradientUnits="userSpaceOnUse" x1="11.2059" y1="16.8606" x2="29.9706" y2="-1.9041">
	<stop  offset="0.2593" style="stop-color:#FFDB6E"/>
	<stop  offset="1" style="stop-color:#FFBC5E"/>
</linearGradient>
<rect x="2.1" y="7.2" style="fill:url(#SVGID_00000043427690701030372170000012012213768424891559_);" width="36.9" height="0.6"/>
<linearGradient id="SVGID_00000172400646983892852730000002558635374634682041_" gradientUnits="userSpaceOnUse" x1="11.1471" y1="19.0371" x2="29.9118" y2="0.2724">
	<stop  offset="0.2593" style="stop-color:#FFDB6E"/>
	<stop  offset="1" style="stop-color:#FFBC5E"/>
</linearGradient>
<rect x="2.1" y="9.4" style="fill:url(#SVGID_00000172400646983892852730000002558635374634682041_);" width="36.9" height="0.6"/>
<linearGradient id="SVGID_00000103223793383906187720000009344166805552725426_" gradientUnits="userSpaceOnUse" x1="11.1471" y1="21.1547" x2="29.9118" y2="2.39">
	<stop  offset="0.2593" style="stop-color:#FFDB6E"/>
	<stop  offset="1" style="stop-color:#FFBC5E"/>
</linearGradient>
<rect x="2.1" y="11.5" style="fill:url(#SVGID_00000103223793383906187720000009344166805552725426_);" width="36.9" height="0.6"/>
<linearGradient id="SVGID_00000163063053050563876880000000435640706023004071_" gradientUnits="userSpaceOnUse" x1="1.9338" y1="16.2089" x2="8.2688" y2="16.2089" gradientTransform="matrix(0.5961 -0.8029 0.8029 0.5961 -10.9539 10.6429)">
	<stop  offset="0.2593" style="stop-color:#FFDB6E"/>
	<stop  offset="1" style="stop-color:#FFBC5E"/>
</linearGradient>
<path style="fill:none;stroke:url(#SVGID_00000163063053050563876880000000435640706023004071_);stroke-width:0.25;" d="M2.1,16.9
	c0,0.4,0.2,0.8,0.5,1.1c0.4,0.5,1,0.9,1.6,1c0.6,0.1,1.3-0.2,1.9-0.6s1-1,1.5-1.6c0.2-0.3,0.4-0.5,0.5-0.8c0.1-0.5,0-1-0.3-1.4
	c-0.3-0.6-0.9-0.9-1.4-1.3c-0.2-0.1-0.4-0.3-0.6-0.3c-0.2,0-0.4,0-0.6,0c-0.8,0.2-1.5,0.9-2.1,1.6c-0.3,0.4-0.6,0.8-0.6,1.2
	c-0.1,0.6,0.2,1.2,0.6,1.7c0.4,0.5,0.9,1,1.5,0.9c0.3,0,0.6-0.2,0.9-0.3c0.7-0.5,1.4-1.1,1.8-1.9c0.1-0.1,0.1-0.2,0.1-0.3
	c0-0.1-0.1-0.2-0.1-0.3c-0.2-0.3-0.5-0.7-0.8-0.9c-0.2-0.2-0.5-0.4-0.9-0.4c-0.7-0.1-1.3,0.6-1.8,1.3c-0.2,0.3-0.5,0.7-0.4,1
	c0,0.2,0.2,0.3,0.3,0.5c0.4,0.4,0.8,0.7,1.3,0.6c0.4-0.1,0.7-0.5,1-0.8c0.1-0.1,0.1-0.2,0.2-0.3c0-0.2,0-0.3-0.1-0.4
	c-0.1-0.2-0.2-0.5-0.5-0.6c-0.3-0.1-0.6,0-0.8,0.3c-0.2,0.3-0.1,0.6,0.1,0.8"/>
<linearGradient id="SVGID_00000018222891509208078310000015851704365706264759_" gradientUnits="userSpaceOnUse" x1="6.3782" y1="20.7116" x2="10.6397" y2="20.7116" gradientTransform="matrix(0.5563 -0.831 0.831 0.5563 -13.4355 16.2604)">
	<stop  offset="0.2593" style="stop-color:#FFDB6E"/>
	<stop  offset="1" style="stop-color:#FFBC5E"/>
</linearGradient>
<path style="fill:none;stroke:url(#SVGID_00000018222891509208078310000015851704365706264759_);stroke-width:0.25;" d="M6.4,21.2
	c0,0.3,0.2,0.5,0.4,0.7c0.4,0.3,0.8,0.7,1.2,0.7c0.5,0.1,0.9-0.1,1.3-0.4c0.4-0.3,0.7-0.7,0.9-1.1c0.1-0.2,0.2-0.4,0.3-0.6
	c0.1-0.3-0.1-0.7-0.3-0.9c-0.3-0.4-0.7-0.7-1.1-0.9c-0.1-0.1-0.3-0.2-0.4-0.2c-0.1,0-0.3,0-0.4,0c-0.6,0.2-1,0.6-1.4,1.1
	c-0.2,0.2-0.3,0.5-0.4,0.8c0,0.4,0.2,0.8,0.5,1.2c0.3,0.3,0.7,0.7,1.2,0.6c0.2,0,0.4-0.1,0.6-0.2c0.5-0.3,0.9-0.8,1.1-1.3
	c0-0.1,0.1-0.1,0-0.2c0-0.1-0.1-0.1-0.1-0.2c-0.2-0.2-0.4-0.5-0.7-0.6c-0.2-0.1-0.4-0.3-0.6-0.3c-0.5,0-0.9,0.4-1.2,0.8
	c-0.1,0.2-0.3,0.5-0.2,0.7c0,0.1,0.2,0.2,0.3,0.3c0.3,0.2,0.6,0.5,1,0.4c0.3-0.1,0.5-0.3,0.6-0.6c0-0.1,0.1-0.1,0.1-0.2
	c0-0.1,0-0.2-0.1-0.3c-0.1-0.2-0.2-0.4-0.4-0.4c-0.2-0.1-0.4,0-0.5,0.2c-0.1,0.2,0,0.4,0.1,0.5"/>
<linearGradient id="SVGID_00000070798533022463213970000000577772095487785383_" gradientUnits="userSpaceOnUse" x1="10.3015" y1="16.7199" x2="16.2369" y2="16.7199" gradientTransform="matrix(0.5989 0.9667 -1.025 0.635 23.1106 -6.6694)">
	<stop  offset="0.2593" style="stop-color:#FFDB6E"/>
	<stop  offset="1" style="stop-color:#FFBC5E"/>
</linearGradient>
<path style="fill:none;stroke:url(#SVGID_00000070798533022463213970000000577772095487785383_);stroke-width:0.25;" d="M14.7,13.3
	c-0.4-0.2-1,0-1.4,0.2c-0.8,0.3-1.5,0.7-2,1.4c-0.4,0.7-0.5,1.5-0.4,2.3s0.5,1.4,0.9,2.1c0.2,0.3,0.4,0.6,0.7,0.8
	c0.5,0.3,1.1,0.3,1.6,0.2c0.8-0.2,1.5-0.6,2.2-1.1c0.2-0.1,0.5-0.3,0.7-0.5c0.1-0.2,0.2-0.4,0.3-0.6c0.2-1-0.2-1.9-0.6-2.7
	c-0.2-0.4-0.5-0.9-1-1.1c-0.6-0.3-1.4-0.2-2.2,0.1c-0.7,0.2-1.5,0.6-1.8,1.4c-0.1,0.3-0.1,0.7-0.1,1c0.1,0.9,0.5,1.8,1.1,2.5
	c0.1,0.1,0.2,0.2,0.3,0.2c0.1,0,0.2,0,0.3,0c0.5-0.1,1-0.3,1.5-0.6c0.4-0.2,0.7-0.4,0.9-0.8c0.4-0.7,0-1.6-0.4-2.4
	c-0.2-0.4-0.5-0.7-0.9-0.8c-0.2,0-0.5,0.1-0.7,0.2c-0.6,0.3-1.2,0.6-1.4,1.2c-0.1,0.5,0.1,0.9,0.4,1.3c0.1,0.1,0.1,0.2,0.2,0.3
	c0.1,0.1,0.3,0.1,0.5,0.1c0.3,0,0.7-0.1,0.9-0.3c0.2-0.2,0.3-0.6,0.1-0.9c-0.2-0.3-0.6-0.3-0.9-0.1"/>
<linearGradient id="SVGID_00000086688814865728530380000003532479178573703078_" gradientUnits="userSpaceOnUse" x1="20.876" y1="22.5344" x2="26.2333" y2="22.5344" gradientTransform="matrix(0.8303 0.5573 -0.5573 0.8303 16.3242 -9.3034)">
	<stop  offset="0.2593" style="stop-color:#FFDB6E"/>
	<stop  offset="1" style="stop-color:#FFBC5E"/>
</linearGradient>
<path style="fill:none;stroke:url(#SVGID_00000086688814865728530380000003532479178573703078_);stroke-width:0.25;" d="M22.7,19.9
	c-0.4,0-0.7,0.3-0.9,0.5c-0.4,0.4-0.8,1-0.9,1.6c-0.1,0.6,0.1,1.2,0.5,1.7s0.9,0.8,1.4,1.2c0.2,0.1,0.5,0.3,0.7,0.3
	c0.4,0.1,0.8-0.1,1.2-0.4c0.5-0.4,0.8-0.9,1.2-1.4c0.1-0.2,0.2-0.4,0.3-0.6c0-0.2,0-0.3,0-0.5c-0.2-0.7-0.8-1.3-1.4-1.7
	c-0.3-0.2-0.7-0.4-1-0.5c-0.6,0-1.1,0.3-1.5,0.7c-0.4,0.4-0.8,0.9-0.8,1.5c0,0.3,0.1,0.5,0.3,0.7c0.4,0.6,1,1.1,1.6,1.4
	c0.1,0,0.2,0.1,0.3,0.1c0.1,0,0.2-0.1,0.2-0.1c0.3-0.3,0.6-0.5,0.8-0.8c0.2-0.2,0.4-0.5,0.4-0.8c0.1-0.7-0.5-1.2-1.1-1.5
	c-0.3-0.2-0.6-0.4-0.9-0.3c-0.2,0.1-0.3,0.2-0.4,0.3c-0.3,0.4-0.6,0.8-0.5,1.2c0.1,0.4,0.4,0.6,0.7,0.8c0.1,0.1,0.2,0.1,0.2,0.1
	c0.1,0,0.3,0,0.4-0.1c0.2-0.1,0.4-0.3,0.5-0.5c0.1-0.2,0-0.5-0.2-0.7c-0.2-0.1-0.5,0-0.7,0.2"/>
<linearGradient id="SVGID_00000109006025644383845500000002722216577466428570_" gradientUnits="userSpaceOnUse" x1="22.2948" y1="17.7987" x2="27.652" y2="17.7987" gradientTransform="matrix(0.1541 -0.4826 0.6886 0.2199 4.765 24.0449)">
	<stop  offset="0.2593" style="stop-color:#FFDB6E"/>
	<stop  offset="1" style="stop-color:#FFBC5E"/>
</linearGradient>
<path style="fill:none;stroke:url(#SVGID_00000109006025644383845500000002722216577466428570_);stroke-width:0.25;" d="M19.3,16.5
	c0.1,0.2,0.4,0.3,0.6,0.4c0.4,0.2,0.8,0.4,1.3,0.3c0.4,0,0.8-0.2,1-0.4c0.2-0.2,0.3-0.5,0.4-0.8c0-0.1,0.1-0.3,0-0.4
	c-0.1-0.2-0.3-0.4-0.5-0.6c-0.4-0.2-0.8-0.4-1.2-0.5c-0.1,0-0.3-0.1-0.4-0.1c-0.1,0-0.2,0-0.3,0.1c-0.4,0.2-0.6,0.5-0.8,0.9
	c-0.1,0.2-0.1,0.4,0,0.6c0.1,0.3,0.5,0.5,0.8,0.7c0.4,0.2,0.8,0.4,1.2,0.3c0.2,0,0.3-0.1,0.4-0.2c0.3-0.3,0.5-0.6,0.5-1
	c0-0.1,0-0.1,0-0.2c0,0-0.1-0.1-0.1-0.1c-0.2-0.1-0.5-0.3-0.8-0.4c-0.2-0.1-0.4-0.1-0.6-0.1c-0.4,0-0.6,0.4-0.7,0.7
	c-0.1,0.2-0.1,0.3,0,0.5c0.1,0.1,0.2,0.1,0.3,0.2c0.3,0.1,0.7,0.3,1,0.2c0.2-0.1,0.3-0.3,0.4-0.4c0,0,0-0.1,0-0.1
	c0-0.1-0.1-0.1-0.2-0.2c-0.1-0.1-0.3-0.2-0.5-0.2c-0.2,0-0.3,0.1-0.4,0.2c0,0.1,0.1,0.3,0.3,0.3"/>
<linearGradient id="SVGID_00000051370227869725767910000015627226414772345730_" gradientUnits="userSpaceOnUse" x1="27.895" y1="21.6793" x2="33.2522" y2="21.6793" gradientTransform="matrix(-0.8914 0.4532 -0.4532 -0.8914 67.6523 27.148)">
	<stop  offset="0.2593" style="stop-color:#FFDB6E"/>
	<stop  offset="1" style="stop-color:#FFBC5E"/>
</linearGradient>
<path style="fill:none;stroke:url(#SVGID_00000051370227869725767910000015627226414772345730_);stroke-width:0.25;" d="M33.2,22.4
	c0.2-0.3,0.1-0.7,0-1.1c-0.2-0.6-0.4-1.2-0.9-1.6c-0.5-0.4-1.1-0.5-1.7-0.4s-1.2,0.3-1.7,0.6c-0.2,0.1-0.5,0.3-0.6,0.5
	c-0.3,0.3-0.3,0.8-0.3,1.2c0.1,0.6,0.4,1.2,0.6,1.7c0.1,0.2,0.2,0.4,0.4,0.5c0.1,0.1,0.3,0.2,0.5,0.2c0.7,0.2,1.5,0,2.2-0.4
	c0.4-0.2,0.7-0.4,0.9-0.7c0.3-0.5,0.2-1.1,0.1-1.6c-0.1-0.6-0.4-1.2-0.9-1.4c-0.2-0.1-0.5-0.1-0.8-0.1c-0.7,0-1.5,0.3-2.1,0.7
	c-0.1,0.1-0.2,0.1-0.2,0.2c0,0.1,0,0.2,0,0.3c0.1,0.4,0.2,0.8,0.3,1.1c0.1,0.3,0.3,0.6,0.5,0.7c0.5,0.4,1.3,0.1,1.9-0.2
	c0.3-0.1,0.6-0.3,0.7-0.6c0-0.2,0-0.3-0.1-0.5c-0.2-0.4-0.4-0.9-0.8-1.1c-0.4-0.1-0.7,0.1-1.1,0.2c-0.1,0-0.2,0.1-0.2,0.2
	c-0.1,0.1-0.1,0.3-0.1,0.4c0,0.2,0,0.5,0.2,0.7c0.2,0.2,0.5,0.2,0.7,0.1s0.3-0.4,0.2-0.7"/>
<linearGradient id="SVGID_00000107590128277778750210000010641986285635293621_" gradientUnits="userSpaceOnUse" x1="34.2923" y1="21.7794" x2="39.6495" y2="21.7794">
	<stop  offset="0.2593" style="stop-color:#FFDB6E"/>
	<stop  offset="1" style="stop-color:#FFBC5E"/>
</linearGradient>
<path style="fill:none;stroke:url(#SVGID_00000107590128277778750210000010641986285635293621_);stroke-width:0.25;" d="M35,19.9
	c-0.3,0.2-0.4,0.6-0.5,1c-0.1,0.6-0.2,1.3,0.1,1.8c0.3,0.5,0.8,0.9,1.4,1.1c0.6,0.2,1.2,0.2,1.8,0.2c0.3,0,0.5,0,0.8-0.1
	c0.4-0.2,0.6-0.6,0.8-1c0.2-0.6,0.2-1.2,0.2-1.8c0-0.2,0-0.4-0.1-0.6c-0.1-0.2-0.2-0.3-0.3-0.4c-0.6-0.5-1.3-0.6-2.1-0.7
	c-0.4,0-0.8,0-1.1,0.2c-0.5,0.3-0.7,0.9-0.8,1.4c-0.1,0.6-0.2,1.2,0.2,1.7c0.2,0.2,0.4,0.4,0.6,0.5c0.7,0.3,1.4,0.4,2.2,0.3
	c0.1,0,0.2,0,0.3-0.1c0.1-0.1,0.1-0.1,0.1-0.2c0.1-0.4,0.2-0.8,0.2-1.2c0-0.3,0-0.6-0.1-0.9c-0.3-0.6-1.1-0.7-1.7-0.7
	c-0.3,0-0.7,0-0.9,0.3c-0.1,0.1-0.1,0.3-0.2,0.5c-0.1,0.5-0.1,1,0.3,1.3c0.3,0.3,0.7,0.3,1,0.3c0.1,0,0.2,0,0.3,0
	c0.1-0.1,0.2-0.2,0.3-0.3c0.1-0.2,0.2-0.5,0.2-0.7c-0.1-0.2-0.3-0.4-0.6-0.4c-0.3,0-0.5,0.3-0.5,0.5"/>
<linearGradient id="SVGID_00000016065687538734714750000004684830312706222497_" gradientUnits="userSpaceOnUse" x1="36.0575" y1="15.3368" x2="39.6634" y2="15.3368" gradientTransform="matrix(0.2299 0.9732 -0.9732 0.2299 44.0805 -25.0357)">
	<stop  offset="0.2593" style="stop-color:#FFDB6E"/>
	<stop  offset="1" style="stop-color:#FFBC5E"/>
</linearGradient>
<path style="fill:none;stroke:url(#SVGID_00000016065687538734714750000004684830312706222497_);stroke-width:0.25;" d="M38.7,13.8
	c-0.2-0.2-0.5-0.2-0.7-0.2c-0.4,0-0.8,0.1-1.1,0.3c-0.3,0.2-0.5,0.6-0.5,1c0,0.4,0,0.8,0.1,1.2c0,0.2,0.1,0.3,0.2,0.5
	c0.2,0.2,0.5,0.3,0.7,0.4c0.4,0,0.8-0.1,1.2-0.1c0.1,0,0.3-0.1,0.4-0.1c0.1-0.1,0.2-0.2,0.2-0.3c0.2-0.4,0.2-1,0.1-1.4
	c0-0.3-0.1-0.5-0.3-0.7c-0.3-0.3-0.7-0.3-1-0.3c-0.4,0-0.8,0.1-1,0.4c-0.1,0.1-0.2,0.3-0.2,0.5c-0.1,0.5,0,1,0.1,1.4
	c0,0.1,0.1,0.1,0.1,0.2c0,0,0.1,0,0.2,0c0.3,0,0.5,0,0.8,0c0.2,0,0.4-0.1,0.6-0.2c0.3-0.3,0.3-0.8,0.2-1.2c0-0.2-0.1-0.4-0.3-0.5
	c-0.1,0-0.2,0-0.3,0c-0.3,0-0.7,0.1-0.8,0.4c-0.1,0.2-0.1,0.5,0,0.7c0,0.1,0,0.1,0.1,0.2c0.1,0.1,0.1,0.1,0.2,0.1
	c0.2,0,0.3,0.1,0.5,0c0.2-0.1,0.2-0.3,0.2-0.4s-0.2-0.3-0.4-0.2"/>
<linearGradient id="SVGID_00000181784081541227653010000003635987259761822084_" gradientUnits="userSpaceOnUse" x1="14.0961" y1="35.5907" x2="27.0823" y2="18.0986">
	<stop  offset="0.2593" style="stop-color:#FFDB6E"/>
	<stop  offset="1" style="stop-color:#FFBC5E"/>
</linearGradient>
<path style="fill:none;stroke:url(#SVGID_00000181784081541227653010000003635987259761822084_);stroke-width:0.5;" d="M2.2,26.5
	c1.6-0.1,3.3-0.1,4.9-0.2c1.2,0,2.4-0.1,3.5,0c2,0.1,4,0.6,6.1,0.8c4.5,0.4,8.9-0.6,13.4-0.4c3,0.1,5.9,0.7,8.9,0.5"/>
<linearGradient id="SVGID_00000005255421978792573820000004090748688804229813_" gradientUnits="userSpaceOnUse" x1="14.1254" y1="38.2893" x2="26.9912" y2="20.9594">
	<stop  offset="0.2593" style="stop-color:#FFDB6E"/>
	<stop  offset="1" style="stop-color:#FFBC5E"/>
</linearGradient>
<path style="fill:none;stroke:url(#SVGID_00000005255421978792573820000004090748688804229813_);stroke-width:0.5;" d="M2.1,29.1
	c4.1,0.7,8.2,0.6,12.4,0.6c1.5,0,3.1,0,4.6,0.1c1.4,0.1,2.7,0.2,4.1,0.3c1.7,0.1,3.4,0.1,5,0c3.6-0.2,7.3-1,10.8,0"/>
<linearGradient id="SVGID_00000080202192407982804760000004329432839635772836_" gradientUnits="userSpaceOnUse" x1="14.1285" y1="41.3168" x2="26.9924" y2="23.9894">
	<stop  offset="0.2593" style="stop-color:#FFDB6E"/>
	<stop  offset="1" style="stop-color:#FFBC5E"/>
</linearGradient>
<path style="fill:none;stroke:url(#SVGID_00000080202192407982804760000004329432839635772836_);stroke-width:0.5;" d="M2.1,32.3
	c0.9-0.7,2.3-0.3,3.5,0c3.8,0.9,7.7-0.2,11.6,0.3c2.9,0.3,5.7,1.5,8.6,1.2c1-0.1,2-0.3,3-0.5c3.4-0.7,6.9-0.6,10.2,0"/>
<linearGradient id="SVGID_00000105384530257744050220000000070831464714348689_" gradientUnits="userSpaceOnUse" x1="2.1765" y1="33.8415" x2="2.1765" y2="33.8415">
	<stop  offset="0.2593" style="stop-color:#FFDB6E"/>
	<stop  offset="1" style="stop-color:#FFBC5E"/>
</linearGradient>
<path style="fill:none;stroke:url(#SVGID_00000105384530257744050220000000070831464714348689_);stroke-width:0.5;" d="M2.2,33.8"/>
<linearGradient id="SVGID_00000013186066160228696620000010760525492283880577_" gradientUnits="userSpaceOnUse" x1="13.9969" y1="44.8022" x2="27.1966" y2="27.0226">
	<stop  offset="0.2593" style="stop-color:#FFDB6E"/>
	<stop  offset="1" style="stop-color:#FFBC5E"/>
</linearGradient>
<path style="fill:none;stroke:url(#SVGID_00000013186066160228696620000010760525492283880577_);stroke-width:0.5;" d="M2.2,35.8
	c5.3-1.4,10.8,0.5,16.3,0.4c1.7,0,3.5-0.3,5.2-0.4c1.9-0.2,3.9-0.2,5.8,0c3.2,0.3,6.4,0.9,9.6,0.2"/>
</svg>
